<?xml version="1.0" encoding="utf-8"?>
<!-- Generator: Adobe Illustrator 25.3.1, SVG Export Plug-In . SVG Version: 6.00 Build 0)  -->
<svg version="1.1" id="Layer_1" xmlns="http://www.w3.org/2000/svg" xmlns:xlink="http://www.w3.org/1999/xlink"
	 viewBox="0 0 155.2 50" height="100%" xml:space="preserve">
<style type="text/css">
	.st0{fill:#FFFFFF;}
</style>
<path class="st0" d="M137.7,25.7c-0.5-0.6-1.2-1.1-1.9-1.5c-0.9-0.4-1.9-0.7-2.8-0.9c-1-0.2-1.8-0.5-2.2-0.7
	c-0.5-0.2-0.7-0.6-0.7-1.1c0-0.4,0.2-0.7,0.4-0.9c0.3-0.2,0.7-0.3,1.3-0.3c0.7,0,1.2,0.2,1.6,0.5c0.4,0.3,0.7,0.8,0.7,1.3h4.4
	c-0.2-1.7-0.8-3-2-4s-2.7-1.5-4.6-1.5c-1.3,0-2.5,0.2-3.4,0.7c-1,0.4-1.7,1-2.2,1.8c-0.5,0.8-0.8,1.6-0.8,2.5c0,1.1,0.3,2,0.8,2.6
	c0.5,0.6,1.2,1.1,1.9,1.4c0.9,0.3,1.8,0.6,2.8,0.9c1.1,0.3,1.8,0.5,2.3,0.7c0.5,0.2,0.7,0.6,0.7,1c0,0.4-0.2,0.7-0.5,0.9
	c-0.3,0.2-0.8,0.4-1.4,0.4c-0.7,0-1.2-0.2-1.7-0.5c-0.4-0.3-0.7-0.8-0.8-1.4H125c0.1,1,0.4,2,1,2.8c0.7,0.9,1.5,1.6,2.5,2
	c1.1,0.5,2.3,0.7,3.6,0.7c1.3,0,2.4-0.2,3.3-0.6c0.9-0.4,1.7-1,2.2-1.8c0.5-0.7,0.8-1.6,0.8-2.6C138.5,27.3,138.2,26.4,137.7,25.7z"
	/>
<polygon class="st0" points="16.7,10.4 16.7,15.1 26.5,15.1 16.7,29.2 16.7,33.3 33.3,33.3 33.3,28.6 23.5,28.6 33.3,14.6
	33.3,10.4 "/>
<path class="st0" d="M96.1,16.7c-4.6-0.1-8.4,3.5-8.6,8.1s3.5,8.4,8.1,8.6c4.6,0.1,8.4-3.5,8.6-8.1c0-0.2,0-0.4,0-0.5
	C104,20.3,100.5,16.8,96.1,16.7z M96.1,29.2c-2.3,0.1-4.3-1.6-4.4-3.9c-0.1-2.3,1.6-4.3,3.9-4.4s4.3,1.6,4.4,3.9c0,0.2,0,0.4,0,0.5
	C99.9,27.4,98.2,29,96.1,29.2L96.1,29.2z"/>
<path class="st0" d="M81.2,18.6v-1.9H76l0,0l0,0v9.4c0,1.7-1.4,3.1-3.1,3.1c-0.1,0-0.1,0-0.2,0c-1.6-0.1-2.9-1.6-2.9-3.2v-9.3h-5.2
	v9.9c0,3.1,2.2,5.9,5.2,6.6c0.5,0.1,1,0.2,1.6,0.2c1.7,0,3.4-0.7,4.7-1.9v1.9h5.2l0,0l0,0V25c0-2.3,1.9-4.1,4.2-4.1h1v-4.1
	c-0.2,0-0.3,0-0.5,0C84.2,16.7,82.5,17.3,81.2,18.6z"/>
<path class="st0" d="M117.7,26c0,1.6-1.3,3.1-2.9,3.2c-1.7,0.1-3.2-1.2-3.3-2.9c0-0.1,0-0.1,0-0.2v-9.4h-5.2v9.9
	c0,3.1,2.2,5.9,5.2,6.6c0.5,0.1,1,0.2,1.6,0.2c1.7,0,3.4-0.7,4.7-1.9v1.9h5.2V16.7h-5.2V26z"/>
<path class="st0" d="M56.2,18.2c-1.2-1-2.6-1.5-4.2-1.5c-4,0-7.3,3.7-7.3,8.3c0,1.4,0.3,2.7,0.9,4c0.6,1.3,1.5,2.4,2.7,3.2
	c2.2,1.5,5.2,1.5,7.4,0c0.2-0.1,0.3-0.2,0.5-0.3v2c0,2-1.9,3.6-4.2,3.6c-1,0-1.9-0.3-2.7-0.9L47,39.9c2.7,1.9,6.2,2.2,9.2,1
	c3.1-1.2,5.2-3.9,5.2-7.1V16.7h-5.2V18.2z M53.1,29.2c-1.7,0-3.2-1-3.8-2.6c-0.2-0.5-0.3-1-0.3-1.5c0-2.3,1.8-4.2,4.1-4.2
	c2.3,0,4.2,1.8,4.2,4.1c0,1-0.4,2-1,2.8C55.5,28.7,54.3,29.2,53.1,29.2z"/>
<rect x="36.5" y="16.7" class="st0" width="5.2" height="16.7"/>
<path class="st0" d="M39.1,9.4c-1.1,0-2.1,0.6-2.6,1.6c-0.3,0.7-0.3,1.5,0,2.2c0.7,1.4,2.5,2,3.9,1.3c0.6-0.3,1-0.7,1.3-1.3
	c0.3-0.7,0.3-1.5,0-2.2C41.2,10,40.2,9.4,39.1,9.4z"/>
</svg>
