<?xml version="1.0" encoding="utf-8"?>
<!-- Generator: Adobe Illustrator 25.3.1, SVG Export Plug-In . SVG Version: 6.00 Build 0)  -->
<svg version="1.1" id="Layer_1" xmlns="http://www.w3.org/2000/svg" xmlns:xlink="http://www.w3.org/1999/xlink" height="100%" viewBox="0 0 96 32" style="enable-background:new 0 0 96 32;" xml:space="preserve">
<style type="text/css">
	.st0{fill:#FFFFFF;}
</style>
<path class="st0" d="M86.5,17.2c-0.3-0.4-0.8-0.7-1.2-1c-0.6-0.3-1.2-0.4-1.8-0.6c-0.6-0.1-1.2-0.3-1.4-0.4
	c-0.3-0.1-0.4-0.4-0.4-0.7s0.1-0.4,0.3-0.6c0.2-0.1,0.4-0.2,0.8-0.2s0.8,0.1,1,0.3c0.3,0.2,0.4,0.5,0.4,0.8H87
	c-0.1-1.1-0.5-1.9-1.3-2.5c-0.8-0.6-1.7-1-2.9-1c-0.8,0-1.6,0.1-2.2,0.4c-0.6,0.3-1.1,0.6-1.4,1.2c-0.3,0.6-0.5,1-0.5,1.6
	c0,0.7,0.2,1.3,0.5,1.7c0.3,0.4,0.8,0.7,1.2,0.9c0.6,0.2,1.2,0.4,1.8,0.6c0.7,0.2,1.2,0.3,1.5,0.4c0.3,0.1,0.4,0.4,0.4,0.6
	c0,0.3-0.1,0.4-0.3,0.6c-0.2,0.2-0.5,0.3-0.9,0.3s-0.8-0.1-1.1-0.3c-0.3-0.2-0.4-0.5-0.5-0.9h-2.9c0.1,0.6,0.3,1.3,0.6,1.8
	c0.4,0.6,1,1,1.6,1.3c0.7,0.3,1.5,0.4,2.3,0.4s1.5-0.1,2.1-0.4c0.6-0.3,1.1-0.6,1.4-1.2c0.3-0.4,0.5-1,0.5-1.7
	C87,18.2,86.8,17.6,86.5,17.2z"/>
<polygon class="st0" points="9,7.7 9,10.6 15.3,10.6 9,19.4 9,21.9 19.6,21.9 19.6,19 13.4,19 19.6,10.2 19.6,7.7 "/>
<path class="st0" d="M59.8,11.6c-2.9-0.1-5.4,2.1-5.5,5.1s2.2,5.3,5.2,5.4c2.9,0.1,5.4-2.1,5.5-5.1c0-0.1,0-0.3,0-0.3
	C64.9,13.8,62.7,11.7,59.8,11.6z M59.8,19.4c-1.5,0.1-2.8-1-2.8-2.4c-0.1-1.5,1-2.7,2.5-2.7c1.5-0.1,2.8,1,2.8,2.4
	c0,0.1,0,0.3,0,0.3C62.3,18.2,61.2,19.3,59.8,19.4L59.8,19.4z"/>
<path class="st0" d="M50.3,12.8v-1.2H47l0,0l0,0v5.9c0,1.1-0.9,2-2,2c-0.1,0-0.1,0-0.1,0c-1-0.1-1.9-1-1.9-2v-5.9h-3.3v6.2
	c0,2,1.4,3.7,3.3,4.1c0.3,0.1,0.6,0.1,1,0.1c1.1,0,2.2-0.4,3-1.2v1.2h3.3l0,0l0,0v-5.2c0-1.5,1.2-2.5,2.7-2.5h0.6v-2.5
	c-0.1,0-0.2,0-0.3,0C52.2,11.6,51.1,12,50.3,12.8z"/>
<path class="st0" d="M73.7,17.4c0,1-0.8,2-1.9,2c-1.1,0.1-2-0.8-2.1-1.9c0-0.1,0-0.1,0-0.1v-5.9h-3.3v6.2c0,2,1.4,3.7,3.3,4.1
	c0.3,0.1,0.6,0.1,1,0.1c1.1,0,2.2-0.4,3-1.2v1.2H77V11.6h-3.3V17.4L73.7,17.4z"/>
<path class="st0" d="M34.3,12.5c-0.8-0.6-1.7-1-2.7-1c-2.6,0-4.7,2.3-4.7,5.2c0,0.9,0.2,1.7,0.6,2.5c0.4,0.8,1,1.5,1.7,2
	c1.4,1,3.3,1,4.7,0c0.1-0.1,0.2-0.1,0.3-0.2v1.3c0,1.3-1.2,2.2-2.7,2.2c-0.6,0-1.2-0.2-1.7-0.6l-1.5,2.1c1.7,1.2,4,1.4,5.9,0.6
	c2-0.8,3.3-2.4,3.3-4.4V11.6h-3.3v0.9H34.3z M32.3,19.4c-1.1,0-2-0.6-2.4-1.7c-0.1-0.3-0.2-0.6-0.2-1c0-1.5,1.2-2.6,2.6-2.6
	c1.5,0,2.7,1.2,2.7,2.5c0,0.6-0.3,1.3-0.6,1.8C33.9,19.1,33.1,19.4,32.3,19.4z"/>
<rect x="21.7" y="11.6" class="st0" width="3.3" height="10.4"/>
<path class="st0" d="M23.4,7c-0.7,0-1.3,0.4-1.7,1c-0.2,0.4-0.2,1,0,1.4c0.4,0.9,1.6,1.3,2.5,0.8c0.4-0.2,0.6-0.4,0.8-0.8
	c0.2-0.4,0.2-1,0-1.4C24.7,7.4,24.1,7,23.4,7z"/>
</svg>
